<svg version="1.1" id="Layer_1" xmlns="http://www.w3.org/2000/svg" xmlns:xlink="http://www.w3.org/1999/xlink" x="0px" y="0px"
	 width="100%" viewBox="0 0 930 930" enable-background="new 0 0 930 930" xml:space="preserve">
<path fill="#FEFFFE" opacity="1.000000" stroke="none" 
	d="
M521.000000,931.000000 
	C347.333344,931.000000 174.166672,931.000000 1.000000,931.000000 
	C1.000000,621.000000 1.000000,311.000000 1.000000,1.000000 
	C311.000000,1.000000 621.000000,1.000000 931.000000,1.000000 
	C931.000000,311.000000 931.000000,621.000000 931.000000,931.000000 
	C794.500000,931.000000 658.000000,931.000000 521.000000,931.000000 
M657.134705,426.242981 
	C657.134705,426.242981 657.244263,426.315918 657.931458,426.220215 
	C658.844482,425.546021 659.757446,424.871826 660.792114,424.274994 
	C660.792114,424.274994 660.922363,424.213135 661.524719,424.072205 
	C661.760986,423.764832 661.997192,423.457428 662.149292,423.249634 
	C662.149292,423.249634 662.265503,423.308655 662.935181,423.159607 
	C665.941223,421.105774 668.947205,419.051941 672.618835,416.832031 
	C680.644043,410.090240 689.305359,403.969360 696.590271,396.505188 
	C741.168396,350.830444 760.422546,296.159729 753.096436,232.594833 
	C748.083069,189.096115 730.018372,151.346451 699.324524,120.351425 
	C653.099976,73.673325 596.820984,54.414509 531.574158,62.973854 
	C489.999786,68.427734 454.169525,86.417137 423.964813,115.425171 
	C396.381134,141.916000 377.980347,173.765015 368.938324,211.815414 
	C365.117310,227.244843 363.716614,242.918625 363.737335,258.796173 
	C363.819611,321.760223 363.766876,384.724426 363.776001,447.688568 
	C363.776245,449.308960 363.912750,450.929352 363.998016,452.823547 
	C365.573730,452.918701 366.861969,453.064636 368.150238,453.064545 
	C434.445618,453.059174 500.742584,453.269684 567.034851,452.807800 
	C578.521729,452.727783 589.988708,449.796814 601.748840,448.295837 
	C601.748840,448.295837 601.996094,448.116119 602.817871,448.126312 
	C612.250366,445.111847 621.682800,442.097412 631.022095,439.081177 
	C631.022095,439.081177 631.085022,439.149933 631.831116,439.100830 
	C639.915955,435.088196 648.000793,431.075562 656.016907,427.011414 
	C656.016907,427.011414 656.042297,427.093384 656.597534,427.007233 
	C656.810181,426.724274 657.022888,426.441315 657.134705,426.242981 
M613.975342,486.484894 
	C598.575867,481.971191 582.880737,478.989044 566.818848,478.950439 
	C500.666382,478.791504 434.513397,478.834564 368.360626,478.824829 
	C366.931122,478.824615 365.501556,479.081604 363.997437,479.225769 
	C363.997437,609.934448 363.997437,740.172546 363.997437,870.805725 
	C365.864838,870.888306 367.486603,871.022583 369.108368,871.022766 
	C430.595673,871.029724 492.083191,871.113647 553.570007,870.935425 
	C564.198120,870.904541 574.909851,870.410339 585.434387,869.011902 
	C635.157532,862.405579 676.701294,839.785217 708.473083,801.309998 
	C752.444519,748.061096 766.035645,686.890747 746.799500,620.510803 
	C727.166687,552.761963 681.981873,508.407318 613.975342,486.484894 
M177.854752,347.500000 
	C177.854630,297.341064 177.891922,247.182068 177.810394,197.023270 
	C177.799316,190.207352 177.627457,183.338913 176.795197,176.585342 
	C169.409790,116.655266 122.853645,69.921928 63.010437,62.258591 
	C57.843830,61.596966 52.608459,61.472336 46.986618,61.068184 
	C46.986618,63.934345 46.986649,65.753525 46.986610,67.572708 
	C46.981110,313.536591 46.983112,559.500488 46.954330,805.464355 
	C46.952255,823.184082 53.214481,838.368530 65.404510,851.015259 
	C93.609322,880.276611 141.055054,876.955566 165.109894,844.176270 
	C174.670151,831.148682 177.924484,816.387512 177.913681,800.433594 
	C177.811676,649.789124 177.853882,499.144562 177.854752,347.500000 
M204.694809,148.499969 
	C204.694992,343.613861 204.690384,538.727722 204.715286,733.841614 
	C204.716156,740.669312 204.440079,747.566284 205.258621,754.313782 
	C212.084335,810.579712 251.264923,854.628235 306.150604,867.536255 
	C315.404968,869.712646 325.019989,870.355713 334.901031,871.769104 
	C335.058838,868.881104 335.208069,867.424988 335.208099,865.968933 
	C335.214752,620.535278 335.212067,375.101654 335.194672,129.668030 
	C335.194427,126.004745 335.303345,122.305153 334.859985,118.683891 
	C330.999756,87.155342 305.516510,63.188648 272.735138,61.347275 
	C242.517090,59.649883 214.099213,79.726967 207.159821,109.805038 
	C204.365891,121.915016 205.401581,134.908539 204.694809,148.499969 
z"/>
<path fill="#0FB5D9" opacity="1.000000" stroke="none" 
	d="
M614.353516,486.618042 
	C681.981873,508.407318 727.166687,552.761963 746.799500,620.510803 
	C766.035645,686.890747 752.444519,748.061096 708.473083,801.309998 
	C676.701294,839.785217 635.157532,862.405579 585.434387,869.011902 
	C574.909851,870.410339 564.198120,870.904541 553.570007,870.935425 
	C492.083191,871.113647 430.595673,871.029724 369.108368,871.022766 
	C367.486603,871.022583 365.864838,870.888306 363.997437,870.805725 
	C363.997437,740.172546 363.997437,609.934448 363.997437,479.225769 
	C365.501556,479.081604 366.931122,478.824615 368.360626,478.824829 
	C434.513397,478.834564 500.666382,478.791504 566.818848,478.950439 
	C582.880737,478.989044 598.575867,481.971191 614.353516,486.618042 
z"/>
<path fill="#9254A1" opacity="1.000000" stroke="none" 
	d="
M660.922363,424.213135 
	C660.922363,424.213135 660.792114,424.274994 660.304199,424.182922 
	C658.958923,424.832520 658.101562,425.574219 657.244263,426.315918 
	C657.244263,426.315918 657.134705,426.242981 656.914185,426.249268 
	C656.476562,426.534851 656.259399,426.814087 656.042236,427.093384 
	C656.042297,427.093384 656.016907,427.011414 655.643616,427.025024 
	C652.927246,427.621033 650.441711,427.883514 648.269775,428.850372 
	C643.281860,431.070801 638.400208,433.547516 633.585571,436.125916 
	C632.518311,436.697479 631.906555,438.119507 631.085022,439.149933 
	C631.085022,439.149933 631.022095,439.081177 630.635010,439.054688 
	C628.937805,439.145996 627.575317,439.072357 626.326050,439.413422 
	C619.537598,441.266785 612.746033,443.122864 606.031006,445.219604 
	C604.530823,445.688019 603.333069,447.125031 601.996094,448.116089 
	C601.996094,448.116119 601.748840,448.295837 601.231567,448.097351 
	C599.769531,447.786530 598.751343,447.386047 597.890869,447.605042 
	C584.464539,451.021881 570.816284,451.132202 557.057922,451.090210 
	C493.847198,450.897308 430.635559,451.005280 366.832794,451.005280 
	C366.570099,448.481323 366.035034,445.725220 366.032837,442.968750 
	C365.985077,382.348022 365.996429,321.727295 365.995880,261.106537 
	C365.995880,259.607697 365.907013,258.103851 365.998383,256.610840 
	C366.581055,247.091217 367.167816,237.571548 367.824585,228.056839 
	C368.215729,222.390625 368.737061,216.733414 369.199860,211.072144 
	C377.980347,173.765015 396.381134,141.916000 423.964813,115.425171 
	C454.169525,86.417137 489.999786,68.427734 531.574158,62.973854 
	C596.820984,54.414509 653.099976,73.673325 699.324524,120.351425 
	C730.018372,151.346451 748.083069,189.096115 753.096436,232.594833 
	C760.422546,296.159729 741.168396,350.830444 696.590271,396.505188 
	C689.305359,403.969360 680.644043,410.090240 671.890747,416.917206 
	C666.622314,416.883026 663.873596,419.291229 662.265503,423.308655 
	C662.265503,423.308655 662.149292,423.249634 661.897827,423.266815 
	C661.405090,423.593719 661.163757,423.903442 660.922363,424.213135 
z"/>
<path fill="#F4B71A" opacity="1.000000" stroke="none" 
	d="
M177.854645,348.000000 
	C177.853882,499.144562 177.811676,649.789124 177.913681,800.433594 
	C177.924484,816.387512 174.670151,831.148682 165.109894,844.176270 
	C141.055054,876.955566 93.609322,880.276611 65.404510,851.015259 
	C53.214481,838.368530 46.952255,823.184082 46.954330,805.464355 
	C46.983112,559.500488 46.981110,313.536591 46.986610,67.572708 
	C46.986649,65.753525 46.986618,63.934345 46.986618,61.068184 
	C52.608459,61.472336 57.843830,61.596966 63.010437,62.258591 
	C122.853645,69.921928 169.409790,116.655266 176.795197,176.585342 
	C177.627457,183.338913 177.799316,190.207352 177.810394,197.023270 
	C177.891922,247.182068 177.854630,297.341064 177.854645,348.000000 
z"/>
<path fill="#84C342" opacity="1.000000" stroke="none" 
	d="
M204.694580,147.999969 
	C205.401581,134.908539 204.365891,121.915016 207.159821,109.805038 
	C214.099213,79.726967 242.517090,59.649883 272.735138,61.347275 
	C305.516510,63.188648 330.999756,87.155342 334.859985,118.683891 
	C335.303345,122.305153 335.194427,126.004745 335.194672,129.668030 
	C335.212067,375.101654 335.214752,620.535278 335.208099,865.968933 
	C335.208069,867.424988 335.058838,868.881104 334.901031,871.769104 
	C325.019989,870.355713 315.404968,869.712646 306.150604,867.536255 
	C251.264923,854.628235 212.084335,810.579712 205.258621,754.313782 
	C204.440079,747.566284 204.716156,740.669312 204.715286,733.841614 
	C204.690384,538.727722 204.694992,343.613861 204.694580,147.999969 
z"/>
<path fill="#875D92" opacity="1.000000" stroke="none" 
	d="
M369.069092,211.443787 
	C368.737061,216.733414 368.215729,222.390625 367.824585,228.056839 
	C367.167816,237.571548 366.581055,247.091217 365.998383,256.610840 
	C365.907013,258.103851 365.995880,259.607697 365.995880,261.106537 
	C365.996429,321.727295 365.985077,382.348022 366.032837,442.968750 
	C366.035034,445.725220 366.570099,448.481323 366.832794,451.005280 
	C430.635559,451.005280 493.847198,450.897308 557.057922,451.090210 
	C570.816284,451.132202 584.464539,451.021881 597.890869,447.605042 
	C598.751343,447.386047 599.769531,447.786530 601.089600,448.040771 
	C589.988708,449.796814 578.521729,452.727783 567.034851,452.807800 
	C500.742584,453.269684 434.445618,453.059174 368.150238,453.064545 
	C366.861969,453.064636 365.573730,452.918701 363.998016,452.823547 
	C363.912750,450.929352 363.776245,449.308960 363.776001,447.688568 
	C363.766876,384.724426 363.819611,321.760223 363.737335,258.796173 
	C363.716614,242.918625 365.117310,227.244843 369.069092,211.443787 
z"/>
<path fill="#875D92" opacity="1.000000" stroke="none" 
	d="
M602.406982,448.121216 
	C603.333069,447.125031 604.530823,445.688019 606.031006,445.219604 
	C612.746033,443.122864 619.537598,441.266785 626.326050,439.413422 
	C627.575317,439.072357 628.937805,439.145996 630.681641,439.055603 
	C621.682800,442.097412 612.250366,445.111847 602.406982,448.121216 
z"/>
<path fill="#875D92" opacity="1.000000" stroke="none" 
	d="
M631.458069,439.125366 
	C631.906555,438.119507 632.518311,436.697479 633.585571,436.125916 
	C638.400208,433.547516 643.281860,431.070801 648.269775,428.850372 
	C650.441711,427.883514 652.927246,427.621033 655.677979,427.050781 
	C648.000793,431.075562 639.915955,435.088196 631.458069,439.125366 
z"/>
<path fill="#875D92" opacity="1.000000" stroke="none" 
	d="
M662.600342,423.234131 
	C663.873596,419.291229 666.622314,416.883026 671.557922,417.000244 
	C668.947205,419.051941 665.941223,421.105774 662.600342,423.234131 
z"/>
<path fill="#875D92" opacity="1.000000" stroke="none" 
	d="
M657.587891,426.268066 
	C658.101562,425.574219 658.958923,424.832520 660.243347,424.144226 
	C659.757446,424.871826 658.844482,425.546021 657.587891,426.268066 
z"/>
<path fill="#875D92" opacity="1.000000" stroke="none" 
	d="
M661.223572,424.142700 
	C661.163757,423.903442 661.405090,423.593719 661.939941,423.217041 
	C661.997192,423.457428 661.760986,423.764832 661.223572,424.142700 
z"/>
<path fill="#875D92" opacity="1.000000" stroke="none" 
	d="
M656.319885,427.050293 
	C656.259399,426.814087 656.476562,426.534851 656.964600,426.206970 
	C657.022888,426.441315 656.810181,426.724274 656.319885,427.050293 
z"/>
</svg>